<svg width="21" height="24" viewBox="0 0 21 24" fill="none" xmlns="http://www.w3.org/2000/svg">
<path fill-rule="evenodd" clip-rule="evenodd" d="M0.978505 21.3605C0.844109 19.6277 0.66672 16.474 0.666749 11.8995V11.8175C0.666717 10.0271 0.666688 8.39995 0.801302 7.02826C0.937608 5.63932 1.23 4.2585 1.98861 3.08858C3.62139 0.570543 6.69276 0.0166812 10.6585 0.000351648C14.6327 -0.0160128 17.7118 0.532006 19.3475 3.06788C20.1043 4.24119 20.3961 5.6269 20.5323 7.01971C20.6668 8.39618 20.6668 10.0272 20.6667 11.8183V11.8995C20.6667 16.474 20.4893 19.6277 20.3549 21.3606C20.1812 23.6004 17.6681 24.7374 15.8701 23.4758C14.8041 22.7466 13.8224 21.9651 13.0804 21.3744C12.7313 21.0965 12.4353 20.8608 12.2085 20.6927C11.3695 20.0708 11.0104 19.999 10.6667 19.999C10.3231 19.999 9.96401 20.0708 9.12498 20.6927C8.89821 20.8608 8.6021 21.0965 8.25304 21.3744C7.51109 21.9651 6.52943 22.7466 5.46339 23.4757C3.66535 24.7375 1.15223 23.6004 0.978505 21.3605ZM12.6667 6C13.2077 6 13.4361 6.00621 13.6255 6.05722C13.7577 6.0928 13.9234 6.16589 14.2106 6.45228C14.2103 6.45204 14.2104 6.4521 14.2106 6.45228C14.2128 6.4548 14.2364 6.48166 14.2718 6.55181C14.3097 6.62677 14.351 6.73092 14.3916 6.86796C14.4737 7.14479 14.5357 7.49466 14.5791 7.88604C14.6659 8.66817 14.6667 9.49202 14.6667 9.99609C14.6667 10.5484 15.1145 10.9961 15.6667 10.9961C16.219 10.9961 16.6667 10.5484 16.6667 9.99609V9.98426C16.6668 9.48552 16.6668 8.56498 16.5669 7.66536C16.5166 7.2123 16.4379 6.73346 16.3091 6.29919C16.187 5.88773 15.9871 5.39945 15.6229 5.03624C15.1601 4.57456 14.7008 4.27553 14.1455 4.126C13.6741 3.99908 13.1817 3.99954 12.7411 3.99995L12.6667 4C12.1145 4 11.6667 4.44772 11.6667 5C11.6667 5.55229 12.1145 6 12.6667 6Z" fill="#E5E5E5"/>
</svg>
