<svg width="25" height="24" viewBox="0 0 25 24" fill="none" xmlns="http://www.w3.org/2000/svg">
<path fill-rule="evenodd" clip-rule="evenodd" d="M16.9351 1.50259C18.003 2.45182 18.7118 3.81919 18.8191 5.53973C22.324 6.48326 22.9148 8.80949 24.1386 13.6282C24.2102 13.9102 24.284 14.2007 24.3607 14.5C26.282 23 22.3261 24 12.8332 24C3.34038 24 -0.615428 23 1.30578 14.5C1.38247 14.2007 1.45627 13.9101 1.52791 13.628C2.75174 8.80944 3.34255 6.48324 6.84743 5.53973C6.95469 3.81919 7.66351 2.45182 8.73139 1.50259C9.87442 0.486564 11.3702 0 12.8333 0C14.2963 0 15.7921 0.486564 16.9351 1.50259ZM12.8332 5C11.2898 5 9.99429 5.05287 8.89866 5.17366C9.05839 4.20979 9.49687 3.49808 10.0601 2.99741C10.7921 2.34677 11.7963 2 12.8333 2C13.8702 2 14.8744 2.34677 15.6064 2.99741C16.1696 3.49808 16.6081 4.20979 16.7678 5.17366C15.6722 5.05288 14.3767 5 12.8332 5ZM7.83326 9C7.28097 9 6.83326 9.44771 6.83326 10C6.83326 10.5523 7.28097 11 7.83326 11H17.8333C18.3855 11 18.8333 10.5523 18.8333 10C18.8333 9.44771 18.3855 9 17.8333 9H7.83326Z" fill="#E5E5E5"/>
</svg>
